<mxfile host="app.diagrams.net" modified="2020-06-11T09:40:40.812Z" agent="5.0 (Macintosh; Intel Mac OS X 10_15_4) AppleWebKit/537.36 (KHTML, like Gecko) Chrome/83.0.4103.97 Safari/537.36" etag="QzTFE4OSExdV9SAw2sea" version="13.2.1" type="github">
  <diagram id="g0dbOOIlQTnFfYd_qdzW" name="第 1 页">
    <mxGraphModel dx="1869" dy="1843" grid="1" gridSize="10" guides="1" tooltips="1" connect="1" arrows="1" fold="1" page="1" pageScale="1" pageWidth="827" pageHeight="1169" math="0" shadow="0">
      <root>
        <mxCell id="0" />
        <mxCell id="1" parent="0" />
        <mxCell id="hD7Om0uuO97VEo5Bp-_T-1" value="global_state:&lt;br&gt;GlobalState" style="rounded=0;whiteSpace=wrap;html=1;" parent="1" vertex="1">
          <mxGeometry x="170" y="40" width="120" height="60" as="geometry" />
        </mxCell>
        <mxCell id="hD7Om0uuO97VEo5Bp-_T-7" style="orthogonalLoop=1;jettySize=auto;html=1;dashed=1;dashPattern=1 4;strokeWidth=1;endArrow=oval;endFill=1;rounded=1;" parent="1" source="hD7Om0uuO97VEo5Bp-_T-2" target="hD7Om0uuO97VEo5Bp-_T-1" edge="1">
          <mxGeometry relative="1" as="geometry" />
        </mxCell>
        <mxCell id="A5GxI49C1zS-vNtngI4n-1" value="所有 state 共享一个 global_state" style="edgeLabel;html=1;align=center;verticalAlign=middle;resizable=0;points=[];" parent="hD7Om0uuO97VEo5Bp-_T-7" vertex="1" connectable="0">
          <mxGeometry x="-0.05" y="-5" relative="1" as="geometry">
            <mxPoint as="offset" />
          </mxGeometry>
        </mxCell>
        <mxCell id="hD7Om0uuO97VEo5Bp-_T-28" value="" style="rounded=0;orthogonalLoop=1;jettySize=auto;html=1;" parent="1" source="hD7Om0uuO97VEo5Bp-_T-2" target="hD7Om0uuO97VEo5Bp-_T-27" edge="1">
          <mxGeometry relative="1" as="geometry" />
        </mxCell>
        <mxCell id="hD7Om0uuO97VEo5Bp-_T-34" style="rounded=0;orthogonalLoop=1;jettySize=auto;html=1;exitX=0;exitY=0.5;exitDx=0;exitDy=0;entryX=1;entryY=0.5;entryDx=0;entryDy=0;" parent="1" source="hD7Om0uuO97VEo5Bp-_T-2" target="hD7Om0uuO97VEo5Bp-_T-29" edge="1">
          <mxGeometry relative="1" as="geometry" />
        </mxCell>
        <mxCell id="hD7Om0uuO97VEo5Bp-_T-35" style="edgeStyle=none;rounded=0;orthogonalLoop=1;jettySize=auto;html=1;exitX=0;exitY=0.5;exitDx=0;exitDy=0;entryX=1;entryY=0.5;entryDx=0;entryDy=0;" parent="1" source="hD7Om0uuO97VEo5Bp-_T-2" target="hD7Om0uuO97VEo5Bp-_T-30" edge="1">
          <mxGeometry relative="1" as="geometry" />
        </mxCell>
        <mxCell id="hD7Om0uuO97VEo5Bp-_T-36" style="edgeStyle=none;rounded=0;orthogonalLoop=1;jettySize=auto;html=1;exitX=0;exitY=0.5;exitDx=0;exitDy=0;entryX=1;entryY=0.5;entryDx=0;entryDy=0;" parent="1" source="hD7Om0uuO97VEo5Bp-_T-2" target="hD7Om0uuO97VEo5Bp-_T-32" edge="1">
          <mxGeometry relative="1" as="geometry" />
        </mxCell>
        <mxCell id="hD7Om0uuO97VEo5Bp-_T-2" value="state: State" style="rounded=0;whiteSpace=wrap;html=1;" parent="1" vertex="1">
          <mxGeometry x="170" y="220" width="120" height="60" as="geometry" />
        </mxCell>
        <mxCell id="hD7Om0uuO97VEo5Bp-_T-27" value="metrics" style="rounded=0;whiteSpace=wrap;html=1;" parent="1" vertex="1">
          <mxGeometry x="-110" y="220" width="120" height="60" as="geometry" />
        </mxCell>
        <mxCell id="hD7Om0uuO97VEo5Bp-_T-10" style="rounded=0;orthogonalLoop=1;jettySize=auto;html=1;" parent="1" source="hD7Om0uuO97VEo5Bp-_T-4" target="hD7Om0uuO97VEo5Bp-_T-9" edge="1">
          <mxGeometry relative="1" as="geometry" />
        </mxCell>
        <mxCell id="hD7Om0uuO97VEo5Bp-_T-25" value="Deref" style="edgeLabel;html=1;align=center;verticalAlign=middle;resizable=0;points=[];" parent="hD7Om0uuO97VEo5Bp-_T-10" vertex="1" connectable="0">
          <mxGeometry x="-0.08" y="-2" relative="1" as="geometry">
            <mxPoint as="offset" />
          </mxGeometry>
        </mxCell>
        <mxCell id="hD7Om0uuO97VEo5Bp-_T-4" value="MainWorker" style="rounded=0;whiteSpace=wrap;html=1;" parent="1" vertex="1">
          <mxGeometry x="280" y="660" width="120" height="60" as="geometry" />
        </mxCell>
        <mxCell id="hD7Om0uuO97VEo5Bp-_T-12" style="rounded=0;orthogonalLoop=1;jettySize=auto;html=1;entryX=0.5;entryY=1;entryDx=0;entryDy=0;" parent="1" source="hD7Om0uuO97VEo5Bp-_T-9" target="hD7Om0uuO97VEo5Bp-_T-2" edge="1">
          <mxGeometry relative="1" as="geometry" />
        </mxCell>
        <mxCell id="hD7Om0uuO97VEo5Bp-_T-13" style="rounded=0;orthogonalLoop=1;jettySize=auto;html=1;exitX=1;exitY=0.5;exitDx=0;exitDy=0;" parent="1" source="hD7Om0uuO97VEo5Bp-_T-9" target="hD7Om0uuO97VEo5Bp-_T-14" edge="1">
          <mxGeometry relative="1" as="geometry">
            <mxPoint x="360" y="360" as="targetPoint" />
          </mxGeometry>
        </mxCell>
        <mxCell id="hD7Om0uuO97VEo5Bp-_T-26" value="Deref" style="edgeLabel;html=1;align=center;verticalAlign=middle;resizable=0;points=[];" parent="hD7Om0uuO97VEo5Bp-_T-13" vertex="1" connectable="0">
          <mxGeometry x="-0.125" y="-1" relative="1" as="geometry">
            <mxPoint as="offset" />
          </mxGeometry>
        </mxCell>
        <mxCell id="hD7Om0uuO97VEo5Bp-_T-16" value="" style="rounded=0;orthogonalLoop=1;jettySize=auto;html=1;exitX=0;exitY=0.5;exitDx=0;exitDy=0;entryX=1;entryY=0.5;entryDx=0;entryDy=0;" parent="1" source="hD7Om0uuO97VEo5Bp-_T-9" target="hD7Om0uuO97VEo5Bp-_T-15" edge="1">
          <mxGeometry relative="1" as="geometry" />
        </mxCell>
        <mxCell id="hD7Om0uuO97VEo5Bp-_T-17" style="rounded=0;orthogonalLoop=1;jettySize=auto;html=1;exitX=0;exitY=0.5;exitDx=0;exitDy=0;entryX=1;entryY=0.5;entryDx=0;entryDy=0;" parent="1" source="hD7Om0uuO97VEo5Bp-_T-9" target="hD7Om0uuO97VEo5Bp-_T-18" edge="1">
          <mxGeometry relative="1" as="geometry">
            <mxPoint x="100" y="440" as="targetPoint" />
          </mxGeometry>
        </mxCell>
        <mxCell id="hD7Om0uuO97VEo5Bp-_T-69" style="edgeStyle=none;rounded=0;orthogonalLoop=1;jettySize=auto;html=1;exitX=1;exitY=0.75;exitDx=0;exitDy=0;entryX=0;entryY=0.5;entryDx=0;entryDy=0;" parent="1" source="hD7Om0uuO97VEo5Bp-_T-9" target="hD7Om0uuO97VEo5Bp-_T-68" edge="1">
          <mxGeometry relative="1" as="geometry">
            <mxPoint x="380.58823529411757" y="430" as="targetPoint" />
          </mxGeometry>
        </mxCell>
        <mxCell id="hD7Om0uuO97VEo5Bp-_T-72" value="waker" style="edgeLabel;html=1;align=center;verticalAlign=middle;resizable=0;points=[];" parent="hD7Om0uuO97VEo5Bp-_T-69" vertex="1" connectable="0">
          <mxGeometry x="0.0272" y="1" relative="1" as="geometry">
            <mxPoint as="offset" />
          </mxGeometry>
        </mxCell>
        <mxCell id="hD7Om0uuO97VEo5Bp-_T-9" value="Worker &amp;gt; Future" style="rounded=0;whiteSpace=wrap;html=1;" parent="1" vertex="1">
          <mxGeometry x="170" y="330" width="120" height="60" as="geometry" />
        </mxCell>
        <mxCell id="hD7Om0uuO97VEo5Bp-_T-20" value="" style="edgeStyle=none;rounded=0;orthogonalLoop=1;jettySize=auto;html=1;" parent="1" source="hD7Om0uuO97VEo5Bp-_T-15" target="hD7Om0uuO97VEo5Bp-_T-19" edge="1">
          <mxGeometry relative="1" as="geometry" />
        </mxCell>
        <mxCell id="hD7Om0uuO97VEo5Bp-_T-15" value="internal_channels:&lt;br&gt;WorkerChannelsInternal" style="rounded=0;whiteSpace=wrap;html=1;" parent="1" vertex="1">
          <mxGeometry x="-110" y="320" width="150" height="60" as="geometry" />
        </mxCell>
        <mxCell id="hD7Om0uuO97VEo5Bp-_T-58" style="edgeStyle=orthogonalEdgeStyle;rounded=0;orthogonalLoop=1;jettySize=auto;html=1;exitX=0;exitY=0.25;exitDx=0;exitDy=0;entryX=0;entryY=0.75;entryDx=0;entryDy=0;dashed=1;" parent="1" source="hD7Om0uuO97VEo5Bp-_T-19" target="hD7Om0uuO97VEo5Bp-_T-21" edge="1">
          <mxGeometry relative="1" as="geometry">
            <Array as="points">
              <mxPoint x="-380" y="335" />
              <mxPoint x="-380" y="465" />
            </Array>
          </mxGeometry>
        </mxCell>
        <mxCell id="hD7Om0uuO97VEo5Bp-_T-19" value="sender: mpsc::Sender&lt;br&gt;receiver: mpsc::Receiver" style="rounded=0;whiteSpace=wrap;html=1;" parent="1" vertex="1">
          <mxGeometry x="-340" y="320" width="150" height="60" as="geometry" />
        </mxCell>
        <mxCell id="hD7Om0uuO97VEo5Bp-_T-66" value="" style="edgeStyle=orthogonalEdgeStyle;rounded=0;orthogonalLoop=1;jettySize=auto;html=1;" parent="1" source="hD7Om0uuO97VEo5Bp-_T-14" target="hD7Om0uuO97VEo5Bp-_T-65" edge="1">
          <mxGeometry relative="1" as="geometry" />
        </mxCell>
        <mxCell id="hD7Om0uuO97VEo5Bp-_T-73" value="Deref" style="edgeLabel;html=1;align=center;verticalAlign=middle;resizable=0;points=[];" parent="hD7Om0uuO97VEo5Bp-_T-66" vertex="1" connectable="0">
          <mxGeometry x="-0.1" y="1" relative="1" as="geometry">
            <mxPoint as="offset" />
          </mxGeometry>
        </mxCell>
        <mxCell id="hD7Om0uuO97VEo5Bp-_T-67" style="rounded=0;orthogonalLoop=1;jettySize=auto;html=1;exitX=1;exitY=0.5;exitDx=0;exitDy=0;" parent="1" source="hD7Om0uuO97VEo5Bp-_T-14" target="hD7Om0uuO97VEo5Bp-_T-68" edge="1">
          <mxGeometry relative="1" as="geometry">
            <mxPoint x="560" y="450" as="targetPoint" />
          </mxGeometry>
        </mxCell>
        <mxCell id="hD7Om0uuO97VEo5Bp-_T-71" value="waker" style="edgeLabel;html=1;align=center;verticalAlign=middle;resizable=0;points=[];" parent="hD7Om0uuO97VEo5Bp-_T-67" vertex="1" connectable="0">
          <mxGeometry x="-0.2201" y="-2" relative="1" as="geometry">
            <mxPoint as="offset" />
          </mxGeometry>
        </mxCell>
        <mxCell id="Ko-rPgLK9G_IWwCupDyg-9" value="" style="rounded=0;orthogonalLoop=1;jettySize=auto;html=1;" edge="1" parent="1" source="hD7Om0uuO97VEo5Bp-_T-14" target="Ko-rPgLK9G_IWwCupDyg-8">
          <mxGeometry relative="1" as="geometry" />
        </mxCell>
        <mxCell id="hD7Om0uuO97VEo5Bp-_T-14" value="isolate:&lt;br&gt;EsIsolate &amp;gt; Future" style="rounded=0;whiteSpace=wrap;html=1;" parent="1" vertex="1">
          <mxGeometry x="370" y="330" width="120" height="60" as="geometry" />
        </mxCell>
        <mxCell id="Ko-rPgLK9G_IWwCupDyg-8" value="modules:&lt;br&gt;Modules" style="rounded=0;whiteSpace=wrap;html=1;" vertex="1" parent="1">
          <mxGeometry x="370" y="40" width="120" height="60" as="geometry" />
        </mxCell>
        <mxCell id="hD7Om0uuO97VEo5Bp-_T-74" value="waker" style="edgeStyle=none;rounded=0;orthogonalLoop=1;jettySize=auto;html=1;entryX=0.5;entryY=0;entryDx=0;entryDy=0;" parent="1" source="hD7Om0uuO97VEo5Bp-_T-65" target="hD7Om0uuO97VEo5Bp-_T-68" edge="1">
          <mxGeometry relative="1" as="geometry" />
        </mxCell>
        <mxCell id="hD7Om0uuO97VEo5Bp-_T-76" value="" style="edgeStyle=none;rounded=0;orthogonalLoop=1;jettySize=auto;html=1;" parent="1" source="hD7Om0uuO97VEo5Bp-_T-65" target="hD7Om0uuO97VEo5Bp-_T-75" edge="1">
          <mxGeometry relative="1" as="geometry" />
        </mxCell>
        <mxCell id="hD7Om0uuO97VEo5Bp-_T-77" style="edgeStyle=none;rounded=0;orthogonalLoop=1;jettySize=auto;html=1;exitX=1;exitY=0.5;exitDx=0;exitDy=0;" parent="1" source="hD7Om0uuO97VEo5Bp-_T-65" target="hD7Om0uuO97VEo5Bp-_T-78" edge="1">
          <mxGeometry relative="1" as="geometry">
            <mxPoint x="770" y="430" as="targetPoint" />
          </mxGeometry>
        </mxCell>
        <mxCell id="hD7Om0uuO97VEo5Bp-_T-79" style="edgeStyle=none;rounded=0;orthogonalLoop=1;jettySize=auto;html=1;exitX=1;exitY=0.5;exitDx=0;exitDy=0;entryX=0;entryY=0.5;entryDx=0;entryDy=0;" parent="1" source="hD7Om0uuO97VEo5Bp-_T-65" target="hD7Om0uuO97VEo5Bp-_T-80" edge="1">
          <mxGeometry relative="1" as="geometry">
            <mxPoint x="770" y="520" as="targetPoint" />
          </mxGeometry>
        </mxCell>
        <mxCell id="hD7Om0uuO97VEo5Bp-_T-81" style="edgeStyle=none;rounded=0;orthogonalLoop=1;jettySize=auto;html=1;exitX=1;exitY=0.5;exitDx=0;exitDy=0;entryX=0;entryY=0.5;entryDx=0;entryDy=0;" parent="1" source="hD7Om0uuO97VEo5Bp-_T-65" target="hD7Om0uuO97VEo5Bp-_T-82" edge="1">
          <mxGeometry relative="1" as="geometry">
            <mxPoint x="760" y="610" as="targetPoint" />
          </mxGeometry>
        </mxCell>
        <mxCell id="hD7Om0uuO97VEo5Bp-_T-83" style="edgeStyle=none;rounded=0;orthogonalLoop=1;jettySize=auto;html=1;exitX=1;exitY=0.5;exitDx=0;exitDy=0;entryX=0;entryY=0.5;entryDx=0;entryDy=0;" parent="1" source="hD7Om0uuO97VEo5Bp-_T-65" target="hD7Om0uuO97VEo5Bp-_T-84" edge="1">
          <mxGeometry relative="1" as="geometry">
            <mxPoint x="770" y="280" as="targetPoint" />
          </mxGeometry>
        </mxCell>
        <mxCell id="hD7Om0uuO97VEo5Bp-_T-86" style="edgeStyle=none;rounded=0;orthogonalLoop=1;jettySize=auto;html=1;exitX=1;exitY=0.5;exitDx=0;exitDy=0;entryX=0;entryY=0.5;entryDx=0;entryDy=0;" parent="1" source="hD7Om0uuO97VEo5Bp-_T-65" target="hD7Om0uuO97VEo5Bp-_T-85" edge="1">
          <mxGeometry relative="1" as="geometry" />
        </mxCell>
        <mxCell id="hD7Om0uuO97VEo5Bp-_T-87" style="edgeStyle=none;rounded=0;orthogonalLoop=1;jettySize=auto;html=1;exitX=1;exitY=0.5;exitDx=0;exitDy=0;entryX=0;entryY=0.5;entryDx=0;entryDy=0;" parent="1" source="hD7Om0uuO97VEo5Bp-_T-65" target="hD7Om0uuO97VEo5Bp-_T-88" edge="1">
          <mxGeometry relative="1" as="geometry">
            <mxPoint x="770" y="750" as="targetPoint" />
          </mxGeometry>
        </mxCell>
        <mxCell id="hD7Om0uuO97VEo5Bp-_T-93" style="edgeStyle=none;rounded=0;orthogonalLoop=1;jettySize=auto;html=1;exitX=1;exitY=0.5;exitDx=0;exitDy=0;entryX=0;entryY=0.5;entryDx=0;entryDy=0;" parent="1" source="hD7Om0uuO97VEo5Bp-_T-65" target="hD7Om0uuO97VEo5Bp-_T-89" edge="1">
          <mxGeometry relative="1" as="geometry" />
        </mxCell>
        <mxCell id="hD7Om0uuO97VEo5Bp-_T-94" style="edgeStyle=none;rounded=0;orthogonalLoop=1;jettySize=auto;html=1;exitX=1;exitY=0.5;exitDx=0;exitDy=0;entryX=0;entryY=0.5;entryDx=0;entryDy=0;" parent="1" source="hD7Om0uuO97VEo5Bp-_T-65" target="hD7Om0uuO97VEo5Bp-_T-90" edge="1">
          <mxGeometry relative="1" as="geometry" />
        </mxCell>
        <mxCell id="hD7Om0uuO97VEo5Bp-_T-95" style="edgeStyle=none;rounded=0;orthogonalLoop=1;jettySize=auto;html=1;exitX=1;exitY=0.5;exitDx=0;exitDy=0;entryX=0;entryY=0.5;entryDx=0;entryDy=0;" parent="1" source="hD7Om0uuO97VEo5Bp-_T-65" target="hD7Om0uuO97VEo5Bp-_T-91" edge="1">
          <mxGeometry relative="1" as="geometry" />
        </mxCell>
        <mxCell id="hD7Om0uuO97VEo5Bp-_T-96" style="edgeStyle=none;rounded=0;orthogonalLoop=1;jettySize=auto;html=1;exitX=1;exitY=0.5;exitDx=0;exitDy=0;entryX=0;entryY=0.5;entryDx=0;entryDy=0;" parent="1" source="hD7Om0uuO97VEo5Bp-_T-65" target="hD7Om0uuO97VEo5Bp-_T-92" edge="1">
          <mxGeometry relative="1" as="geometry" />
        </mxCell>
        <mxCell id="hD7Om0uuO97VEo5Bp-_T-65" value="core_isolate: &lt;br&gt;CoreIsolate &amp;gt; Future" style="rounded=0;whiteSpace=wrap;html=1;" parent="1" vertex="1">
          <mxGeometry x="570" y="330" width="120" height="60" as="geometry" />
        </mxCell>
        <mxCell id="hD7Om0uuO97VEo5Bp-_T-75" value="v8_isolate: &lt;br&gt;v8::OwnedIsolate" style="rounded=0;whiteSpace=wrap;html=1;" parent="1" vertex="1">
          <mxGeometry x="770" y="330" width="120" height="60" as="geometry" />
        </mxCell>
        <mxCell id="hD7Om0uuO97VEo5Bp-_T-22" value="" style="edgeStyle=none;rounded=0;orthogonalLoop=1;jettySize=auto;html=1;" parent="1" source="hD7Om0uuO97VEo5Bp-_T-18" target="hD7Om0uuO97VEo5Bp-_T-21" edge="1">
          <mxGeometry relative="1" as="geometry" />
        </mxCell>
        <mxCell id="hD7Om0uuO97VEo5Bp-_T-18" value="external_channels:&lt;br&gt;WorkerHandle" style="rounded=0;whiteSpace=wrap;html=1;" parent="1" vertex="1">
          <mxGeometry x="-80" y="420" width="120" height="60" as="geometry" />
        </mxCell>
        <mxCell id="hD7Om0uuO97VEo5Bp-_T-59" style="edgeStyle=orthogonalEdgeStyle;rounded=0;orthogonalLoop=1;jettySize=auto;html=1;exitX=0;exitY=0.25;exitDx=0;exitDy=0;entryX=0;entryY=0.65;entryDx=0;entryDy=0;entryPerimeter=0;dashed=1;" parent="1" source="hD7Om0uuO97VEo5Bp-_T-21" target="hD7Om0uuO97VEo5Bp-_T-19" edge="1">
          <mxGeometry relative="1" as="geometry" />
        </mxCell>
        <mxCell id="hD7Om0uuO97VEo5Bp-_T-21" value="sender: mpsc::Sender&lt;br&gt;receiver: mpsc::Receiver" style="rounded=0;whiteSpace=wrap;html=1;" parent="1" vertex="1">
          <mxGeometry x="-340" y="420" width="150" height="60" as="geometry" />
        </mxCell>
        <mxCell id="hD7Om0uuO97VEo5Bp-_T-29" value="global_timer: &lt;br&gt;GlobalTimer" style="rounded=0;whiteSpace=wrap;html=1;" parent="1" vertex="1">
          <mxGeometry x="-110" y="150" width="120" height="60" as="geometry" />
        </mxCell>
        <mxCell id="hD7Om0uuO97VEo5Bp-_T-30" value="workers:&lt;br&gt;HashMap&amp;lt;u32, (JoinHandle, WebWorkerHandle)&amp;gt;" style="rounded=0;whiteSpace=wrap;html=1;" parent="1" vertex="1">
          <mxGeometry x="-280" y="80" width="290" height="60" as="geometry" />
        </mxCell>
        <mxCell id="hD7Om0uuO97VEo5Bp-_T-32" value="is_main,&lt;br&gt;start_time,&lt;br&gt;is_internal,&lt;br&gt;next_worker_id," style="rounded=0;whiteSpace=wrap;html=1;" parent="1" vertex="1">
          <mxGeometry x="-110" y="-10" width="120" height="80" as="geometry" />
        </mxCell>
        <mxCell id="hD7Om0uuO97VEo5Bp-_T-39" value="" style="edgeStyle=none;rounded=0;orthogonalLoop=1;jettySize=auto;html=1;entryX=0.5;entryY=1;entryDx=0;entryDy=0;" parent="1" source="hD7Om0uuO97VEo5Bp-_T-37" target="hD7Om0uuO97VEo5Bp-_T-9" edge="1">
          <mxGeometry relative="1" as="geometry">
            <mxPoint x="230" y="680" as="targetPoint" />
          </mxGeometry>
        </mxCell>
        <mxCell id="hD7Om0uuO97VEo5Bp-_T-40" value="Deref" style="edgeLabel;html=1;align=center;verticalAlign=middle;resizable=0;points=[];" parent="hD7Om0uuO97VEo5Bp-_T-39" vertex="1" connectable="0">
          <mxGeometry y="1" relative="1" as="geometry">
            <mxPoint as="offset" />
          </mxGeometry>
        </mxCell>
        <mxCell id="hD7Om0uuO97VEo5Bp-_T-42" value="" style="edgeStyle=none;rounded=0;orthogonalLoop=1;jettySize=auto;html=1;exitX=0;exitY=0.5;exitDx=0;exitDy=0;entryX=1;entryY=0.5;entryDx=0;entryDy=0;" parent="1" source="hD7Om0uuO97VEo5Bp-_T-37" target="hD7Om0uuO97VEo5Bp-_T-41" edge="1">
          <mxGeometry relative="1" as="geometry" />
        </mxCell>
        <mxCell id="hD7Om0uuO97VEo5Bp-_T-43" style="edgeStyle=none;rounded=0;orthogonalLoop=1;jettySize=auto;html=1;exitX=0;exitY=0.5;exitDx=0;exitDy=0;entryX=1;entryY=0.5;entryDx=0;entryDy=0;" parent="1" source="hD7Om0uuO97VEo5Bp-_T-37" target="hD7Om0uuO97VEo5Bp-_T-44" edge="1">
          <mxGeometry relative="1" as="geometry">
            <mxPoint x="-30" y="720" as="targetPoint" />
          </mxGeometry>
        </mxCell>
        <mxCell id="hD7Om0uuO97VEo5Bp-_T-45" style="edgeStyle=none;rounded=0;orthogonalLoop=1;jettySize=auto;html=1;exitX=0;exitY=0.5;exitDx=0;exitDy=0;entryX=1;entryY=0.5;entryDx=0;entryDy=0;" parent="1" source="hD7Om0uuO97VEo5Bp-_T-37" target="hD7Om0uuO97VEo5Bp-_T-46" edge="1">
          <mxGeometry relative="1" as="geometry">
            <mxPoint x="-30" y="570" as="targetPoint" />
          </mxGeometry>
        </mxCell>
        <mxCell id="hD7Om0uuO97VEo5Bp-_T-37" value="WebWorker &amp;gt; Future" style="rounded=0;whiteSpace=wrap;html=1;" parent="1" vertex="1">
          <mxGeometry x="110" y="660" width="120" height="60" as="geometry" />
        </mxCell>
        <mxCell id="hD7Om0uuO97VEo5Bp-_T-41" value="terminate_rx:&lt;br&gt;mpsc::Receiver" style="rounded=0;whiteSpace=wrap;html=1;" parent="1" vertex="1">
          <mxGeometry x="-110" y="670" width="120" height="60" as="geometry" />
        </mxCell>
        <mxCell id="hD7Om0uuO97VEo5Bp-_T-49" style="edgeStyle=none;rounded=0;orthogonalLoop=1;jettySize=auto;html=1;exitX=0;exitY=0.5;exitDx=0;exitDy=0;" parent="1" source="hD7Om0uuO97VEo5Bp-_T-44" target="hD7Om0uuO97VEo5Bp-_T-50" edge="1">
          <mxGeometry relative="1" as="geometry">
            <mxPoint x="-190" y="840" as="targetPoint" />
          </mxGeometry>
        </mxCell>
        <mxCell id="hD7Om0uuO97VEo5Bp-_T-51" style="edgeStyle=none;rounded=0;orthogonalLoop=1;jettySize=auto;html=1;exitX=0;exitY=0.5;exitDx=0;exitDy=0;" parent="1" source="hD7Om0uuO97VEo5Bp-_T-44" target="hD7Om0uuO97VEo5Bp-_T-52" edge="1">
          <mxGeometry relative="1" as="geometry">
            <mxPoint x="-200" y="700" as="targetPoint" />
          </mxGeometry>
        </mxCell>
        <mxCell id="hD7Om0uuO97VEo5Bp-_T-57" style="edgeStyle=none;rounded=0;orthogonalLoop=1;jettySize=auto;html=1;entryX=0.5;entryY=1;entryDx=0;entryDy=0;" parent="1" source="hD7Om0uuO97VEo5Bp-_T-44" target="hD7Om0uuO97VEo5Bp-_T-18" edge="1">
          <mxGeometry relative="1" as="geometry" />
        </mxCell>
        <mxCell id="hD7Om0uuO97VEo5Bp-_T-60" value="worker_handle, Deref" style="edgeLabel;html=1;align=center;verticalAlign=middle;resizable=0;points=[];" parent="hD7Om0uuO97VEo5Bp-_T-57" vertex="1" connectable="0">
          <mxGeometry x="-0.0778" y="1" relative="1" as="geometry">
            <mxPoint as="offset" />
          </mxGeometry>
        </mxCell>
        <mxCell id="hD7Om0uuO97VEo5Bp-_T-44" value="handle:&lt;br&gt;WebWorkerHandle" style="rounded=0;whiteSpace=wrap;html=1;" parent="1" vertex="1">
          <mxGeometry x="-110" y="590" width="120" height="60" as="geometry" />
        </mxCell>
        <mxCell id="hD7Om0uuO97VEo5Bp-_T-46" value="event_loop_idle,&lt;br&gt;has_deno_namespace," style="rounded=0;whiteSpace=wrap;html=1;" parent="1" vertex="1">
          <mxGeometry x="-130" y="760" width="140" height="60" as="geometry" />
        </mxCell>
        <mxCell id="hD7Om0uuO97VEo5Bp-_T-50" value="isolate_handle:&lt;br&gt;v8::IsolateHandle" style="rounded=0;whiteSpace=wrap;html=1;" parent="1" vertex="1">
          <mxGeometry x="-360" y="555" width="120" height="60" as="geometry" />
        </mxCell>
        <mxCell id="hD7Om0uuO97VEo5Bp-_T-54" style="edgeStyle=none;rounded=0;orthogonalLoop=1;jettySize=auto;html=1;exitX=1;exitY=0.75;exitDx=0;exitDy=0;entryX=0;entryY=0.75;entryDx=0;entryDy=0;dashed=1;" parent="1" source="hD7Om0uuO97VEo5Bp-_T-52" target="hD7Om0uuO97VEo5Bp-_T-41" edge="1">
          <mxGeometry relative="1" as="geometry" />
        </mxCell>
        <mxCell id="hD7Om0uuO97VEo5Bp-_T-52" value="terminate_tx:&lt;br&gt;mpsc::Sender" style="rounded=0;whiteSpace=wrap;html=1;" parent="1" vertex="1">
          <mxGeometry x="-360" y="670" width="120" height="60" as="geometry" />
        </mxCell>
        <mxCell id="hD7Om0uuO97VEo5Bp-_T-61" value="给 worker 发消息" style="text;html=1;strokeColor=none;fillColor=none;align=center;verticalAlign=middle;whiteSpace=wrap;rounded=0;" parent="1" vertex="1">
          <mxGeometry x="-340" y="400" width="100" height="20" as="geometry" />
        </mxCell>
        <mxCell id="hD7Om0uuO97VEo5Bp-_T-62" value="给 host 发消息" style="text;html=1;strokeColor=none;fillColor=none;align=center;verticalAlign=middle;whiteSpace=wrap;rounded=0;" parent="1" vertex="1">
          <mxGeometry x="-340" y="300" width="90" height="20" as="geometry" />
        </mxCell>
        <mxCell id="hD7Om0uuO97VEo5Bp-_T-63" value="发送 worker 终止消息, 以结束 future" style="text;html=1;strokeColor=none;fillColor=none;align=center;verticalAlign=middle;whiteSpace=wrap;rounded=0;" parent="1" vertex="1">
          <mxGeometry x="-360" y="730" width="200" height="20" as="geometry" />
        </mxCell>
        <mxCell id="hD7Om0uuO97VEo5Bp-_T-68" value="AtomicWaker" style="rounded=0;whiteSpace=wrap;html=1;" parent="1" vertex="1">
          <mxGeometry x="570" y="460" width="120" height="60" as="geometry" />
        </mxCell>
        <mxCell id="hD7Om0uuO97VEo5Bp-_T-78" value="resource_table:&lt;br&gt;ResourceTable" style="rounded=0;whiteSpace=wrap;html=1;" parent="1" vertex="1">
          <mxGeometry x="770" y="410" width="120" height="60" as="geometry" />
        </mxCell>
        <mxCell id="hD7Om0uuO97VEo5Bp-_T-80" value="global_context:&lt;br&gt;v8::Global&amp;lt;v8::Context&amp;gt;" style="rounded=0;whiteSpace=wrap;html=1;" parent="1" vertex="1">
          <mxGeometry x="770" y="495" width="150" height="60" as="geometry" />
        </mxCell>
        <mxCell id="Ko-rPgLK9G_IWwCupDyg-2" style="edgeStyle=orthogonalEdgeStyle;rounded=0;orthogonalLoop=1;jettySize=auto;html=1;entryX=1;entryY=0.5;entryDx=0;entryDy=0;exitX=1;exitY=0.5;exitDx=0;exitDy=0;" edge="1" parent="1" source="hD7Om0uuO97VEo5Bp-_T-82" target="hD7Om0uuO97VEo5Bp-_T-88">
          <mxGeometry relative="1" as="geometry" />
        </mxCell>
        <mxCell id="Ko-rPgLK9G_IWwCupDyg-3" value="backing store" style="edgeLabel;html=1;align=center;verticalAlign=middle;resizable=0;points=[];" vertex="1" connectable="0" parent="Ko-rPgLK9G_IWwCupDyg-2">
          <mxGeometry x="-0.1448" y="-2" relative="1" as="geometry">
            <mxPoint as="offset" />
          </mxGeometry>
        </mxCell>
        <mxCell id="hD7Om0uuO97VEo5Bp-_T-82" value="shared_ab:&lt;br&gt;v8::SharedArrayBuffer" style="rounded=0;whiteSpace=wrap;html=1;" parent="1" vertex="1">
          <mxGeometry x="770" y="585" width="140" height="60" as="geometry" />
        </mxCell>
        <mxCell id="hD7Om0uuO97VEo5Bp-_T-84" value="js_recv_cb" style="rounded=0;whiteSpace=wrap;html=1;" parent="1" vertex="1">
          <mxGeometry x="770" y="240" width="120" height="60" as="geometry" />
        </mxCell>
        <mxCell id="hD7Om0uuO97VEo5Bp-_T-85" value="js_macrotask_cb" style="rounded=0;whiteSpace=wrap;html=1;" parent="1" vertex="1">
          <mxGeometry x="770" y="160" width="120" height="60" as="geometry" />
        </mxCell>
        <mxCell id="hD7Om0uuO97VEo5Bp-_T-88" value="shared: &lt;br&gt;SharedQueue" style="rounded=0;whiteSpace=wrap;html=1;" parent="1" vertex="1">
          <mxGeometry x="770" y="670" width="120" height="60" as="geometry" />
        </mxCell>
        <mxCell id="hD7Om0uuO97VEo5Bp-_T-89" value="pending_promise_exceptions" style="rounded=0;whiteSpace=wrap;html=1;" parent="1" vertex="1">
          <mxGeometry x="770" y="80" width="180" height="60" as="geometry" />
        </mxCell>
        <mxCell id="hD7Om0uuO97VEo5Bp-_T-90" value="shared_isolate_handle:&lt;br&gt;v8::Isolate" style="rounded=0;whiteSpace=wrap;html=1;" parent="1" vertex="1">
          <mxGeometry x="770" width="170" height="60" as="geometry" />
        </mxCell>
        <mxCell id="hD7Om0uuO97VEo5Bp-_T-91" value="pending_ops" style="rounded=0;whiteSpace=wrap;html=1;" parent="1" vertex="1">
          <mxGeometry x="770" y="750" width="120" height="60" as="geometry" />
        </mxCell>
        <mxCell id="hD7Om0uuO97VEo5Bp-_T-92" value="op_registry:&lt;br&gt;OpRegistry" style="rounded=0;whiteSpace=wrap;html=1;" parent="1" vertex="1">
          <mxGeometry x="770" y="830" width="120" height="60" as="geometry" />
        </mxCell>
        <mxCell id="A5GxI49C1zS-vNtngI4n-3" value="worker 内的 chan" style="text;html=1;strokeColor=none;fillColor=none;align=center;verticalAlign=middle;whiteSpace=wrap;rounded=0;" parent="1" vertex="1">
          <mxGeometry x="40" y="320" width="110" height="20" as="geometry" />
        </mxCell>
        <mxCell id="A5GxI49C1zS-vNtngI4n-6" value="worker 外的 chan" style="text;html=1;strokeColor=none;fillColor=none;align=center;verticalAlign=middle;whiteSpace=wrap;rounded=0;" parent="1" vertex="1">
          <mxGeometry x="40" y="460" width="110" height="20" as="geometry" />
        </mxCell>
        <mxCell id="A5GxI49C1zS-vNtngI4n-9" value="js 侧 Timer fire回调" style="text;html=1;strokeColor=none;fillColor=none;align=center;verticalAlign=middle;whiteSpace=wrap;rounded=0;" parent="1" vertex="1">
          <mxGeometry x="890" y="180" width="110" height="20" as="geometry" />
        </mxCell>
        <mxCell id="A5GxI49C1zS-vNtngI4n-10" value="js 侧 异步 op 消息接收回调" style="text;html=1;strokeColor=none;fillColor=none;align=center;verticalAlign=middle;whiteSpace=wrap;rounded=0;" parent="1" vertex="1">
          <mxGeometry x="890" y="260" width="150" height="20" as="geometry" />
        </mxCell>
        <mxCell id="Ko-rPgLK9G_IWwCupDyg-1" value="rust 侧对象引用, 这些对象往往需要跨多个 ops 使用" style="text;html=1;strokeColor=none;fillColor=none;align=center;verticalAlign=middle;whiteSpace=wrap;rounded=0;" vertex="1" parent="1">
          <mxGeometry x="890" y="430" width="280" height="20" as="geometry" />
        </mxCell>
        <mxCell id="Ko-rPgLK9G_IWwCupDyg-4" value="js 侧 core.shared" style="text;html=1;strokeColor=none;fillColor=none;align=center;verticalAlign=middle;whiteSpace=wrap;rounded=0;" vertex="1" parent="1">
          <mxGeometry x="910" y="585" width="100" height="20" as="geometry" />
        </mxCell>
        <mxCell id="Ko-rPgLK9G_IWwCupDyg-10" style="rounded=0;orthogonalLoop=1;jettySize=auto;html=1;exitX=0.75;exitY=0;exitDx=0;exitDy=0;" edge="1" parent="1" source="hD7Om0uuO97VEo5Bp-_T-14" target="Ko-rPgLK9G_IWwCupDyg-11">
          <mxGeometry relative="1" as="geometry">
            <mxPoint x="520" y="220" as="targetPoint" />
            <mxPoint x="470" y="300" as="sourcePoint" />
          </mxGeometry>
        </mxCell>
        <mxCell id="Ko-rPgLK9G_IWwCupDyg-5" value="es module 操作" style="text;html=1;strokeColor=none;fillColor=none;align=center;verticalAlign=middle;whiteSpace=wrap;rounded=0;" vertex="1" parent="1">
          <mxGeometry x="400" y="390" width="90" height="20" as="geometry" />
        </mxCell>
        <mxCell id="Ko-rPgLK9G_IWwCupDyg-6" value="op, 直接 js 通信, 执行 js 代码" style="text;html=1;strokeColor=none;fillColor=none;align=center;verticalAlign=middle;whiteSpace=wrap;rounded=0;" vertex="1" parent="1">
          <mxGeometry x="530" y="310" width="160" height="20" as="geometry" />
        </mxCell>
        <mxCell id="Ko-rPgLK9G_IWwCupDyg-7" value="worker 间通信" style="text;html=1;strokeColor=none;fillColor=none;align=center;verticalAlign=middle;whiteSpace=wrap;rounded=0;" vertex="1" parent="1">
          <mxGeometry x="240" y="310" width="90" height="20" as="geometry" />
        </mxCell>
        <mxCell id="Ko-rPgLK9G_IWwCupDyg-11" value="loader:&lt;br&gt;ModuleLoader" style="rounded=0;whiteSpace=wrap;html=1;" vertex="1" parent="1">
          <mxGeometry x="540" y="40" width="120" height="60" as="geometry" />
        </mxCell>
      </root>
    </mxGraphModel>
  </diagram>
</mxfile>
